<svg xmlns="http://www.w3.org/2000/svg" width="24" height="24" viewBox="0 0 24 24">
    <path fill="#000" fill-rule="nonzero" d="M12 0c1.649 0 3.204.322 4.665.967a12.085 12.085 0 0 1 3.822 2.64 12.488 12.488 0 0 1 2.572 3.909c.627 1.49.941 3.082.941 4.775 0 1.365-.206 2.663-.618 3.894a12.894 12.894 0 0 1-1.7 3.376 12.103 12.103 0 0 1-2.586 2.669 11.515 11.515 0 0 1-3.302 1.745c-.3.058-.51.015-.632-.13a.688.688 0 0 1-.183-.447v-1.24-2.135c0-.577-.08-1.058-.239-1.443-.16-.385-.351-.663-.576-.837a8.38 8.38 0 0 0 3.752-1.384c1.152-.77 1.728-2.337 1.728-4.703a4.97 4.97 0 0 0-.323-1.832 4.578 4.578 0 0 0-.914-1.457c.075-.173.155-.548.24-1.125.084-.577-.033-1.29-.352-2.135l-.787.028c-.524.02-1.358.424-2.501 1.212a11.061 11.061 0 0 0-1.49-.303 11.492 11.492 0 0 0-3.035 0c-.505.068-1.002.169-1.489.303C7.85 5.56 7.016 5.155 6.492 5.135l-.787-.028c-.337.846-.46 1.558-.365 2.135.093.577.178.952.253 1.125a4.578 4.578 0 0 0-.914 1.457 4.97 4.97 0 0 0-.323 1.832c0 2.366.576 3.933 1.728 4.703a8.353 8.353 0 0 0 3.724 1.384 2.274 2.274 0 0 0-.464.635c-.14.27-.239.606-.295 1.01-.337.154-.871.255-1.602.303-.73.048-1.358-.39-1.883-1.313l-.463-.606c-.31-.404-.773-.625-1.391-.663l-.436.086c-.29.058-.164.27.38.635l.449.375c.3.25.59.73.871 1.443l.773 1.096c.515.73 1.607.914 3.274.548V23.4c0 .153-.06.302-.183.446-.121.145-.332.188-.632.13a11.817 11.817 0 0 1-3.288-1.745 11.96 11.96 0 0 1-2.6-2.669 12.894 12.894 0 0 1-1.7-3.376A12.185 12.185 0 0 1 0 12.291c0-1.693.314-3.285.941-4.775a12.488 12.488 0 0 1 2.572-3.91A12.085 12.085 0 0 1 7.335.966 11.435 11.435 0 0 1 12 0z"/>
</svg>
