<svg xmlns="http://www.w3.org/2000/svg" width="24" height="24" viewBox="0 0 24 24">
    <path fill="#000" fill-rule="nonzero" d="M0 0h24v24H0V0zm5.737 8.05v7.087a.81.81 0 0 1-.22.703l-1.699 2.043v.269h4.82v-.27l-1.7-2.042a.84.84 0 0 1-.234-.703V9.009l4.23 9.143h.492l3.633-9.143v7.287c0 .195 0 .232-.128.36l-1.307 1.256v.27h6.346v-.27l-1.262-1.227a.372.372 0 0 1-.143-.359V7.31a.372.372 0 0 1 .143-.359L20 5.724v-.27h-4.472l-3.188 7.88-3.627-7.88H4.022v.27l1.511 1.803a.618.618 0 0 1 .204.524z"/>
</svg>
