<svg xmlns="http://www.w3.org/2000/svg" width="56" height="56" viewBox="0 0 56 56">
    <g fill="#FFF" fill-rule="nonzero">
        <path d="M28 0C12.56 0 0 12.56 0 28s12.56 28 28 28 28-12.56 28-28S43.44 0 28 0zm0 52.167C14.674 52.167 3.833 41.326 3.833 28 3.833 14.674 14.673 3.833 28 3.833c13.326 0 24.167 10.841 24.167 24.167 0 13.326-10.841 24.167-24.167 24.167z"/>
        <path d="M32.103 16.16a1.89 1.89 0 0 0-2.673 0 1.893 1.893 0 0 0 0 2.677l7.263 7.27-21.033.002a1.891 1.891 0 0 0 0 3.784l21.034-.002-7.265 7.272a1.894 1.894 0 0 0 1.337 3.23c.484 0 .967-.184 1.336-.554l10.492-10.501a1.892 1.892 0 0 0 0-2.677l-10.491-10.5z"/>
    </g>
</svg>
